<?xml version="1.0" encoding="utf-8"?>
<!-- Generator: Adobe Illustrator 28.2.0, SVG Export Plug-In . SVG Version: 6.00 Build 0)  -->
<svg version="1.1" id="Layer_1" xmlns="http://www.w3.org/2000/svg" xmlns:xlink="http://www.w3.org/1999/xlink" x="0px" y="0px"
	 viewBox="0 0 447.32 294.09" style="enable-background:new 0 0 447.32 294.09;" xml:space="preserve">
<style type="text/css">
	.st0{fill:none;}
	.st1{fill:#292D75;}
	.st2{fill:#4AB0E0;}
	.st3{clip-path:url(#SVGID_00000083056671146113732500000001070837867675034028_);fill:#4AB0E0;}
	.st4{clip-path:url(#SVGID_00000083056671146113732500000001070837867675034028_);fill:#F79320;}
	.st5{clip-path:url(#SVGID_00000083056671146113732500000001070837867675034028_);fill:#292D75;}
	
		.st6{clip-path:url(#SVGID_00000083056671146113732500000001070837867675034028_);fill:none;stroke:#24A8E0;stroke-width:3;stroke-miterlimit:10;}
	.st7{fill:#FBB03A;}
	.st8{fill:none;stroke:#24A8E0;stroke-width:3;stroke-miterlimit:10;}
	.st9{clip-path:url(#SVGID_00000060724643986693637610000015592423667360087723_);fill:#FBB03A;}
	
		.st10{clip-path:url(#SVGID_00000052090088759120741560000009617870361842088625_);fill:none;stroke:#4AB0E0;stroke-width:6;stroke-miterlimit:10;}
	.st11{clip-path:url(#SVGID_00000052090088759120741560000009617870361842088625_);fill:#4AB0E0;}
	.st12{fill:#F79320;}
	.st13{fill:#58CBF5;}
	.st14{fill:#27AAE1;}
	.st15{clip-path:url(#SVGID_00000088117864913666494870000004468479558291500949_);fill:#FBB03A;}
	.st16{clip-path:url(#SVGID_00000088117864913666494870000004468479558291500949_);fill:#27AAE1;}
	.st17{fill:none;stroke:#FFFFFF;stroke-width:0.75;stroke-miterlimit:10;}
	.st18{fill:none;stroke:#27AAE1;stroke-width:0.5;stroke-miterlimit:10;}
	.st19{fill:none;stroke:#FBB03A;stroke-width:0.5;stroke-miterlimit:10;}
	.st20{fill:none;stroke:#FFFFFF;stroke-width:0.5;stroke-miterlimit:10;}
	.st21{fill:none;stroke:#292D75;stroke-width:0.5;stroke-miterlimit:10;}
	.st22{fill:#FFFFFF;}
	.st23{fill:none;stroke:#000000;stroke-width:0.5;stroke-miterlimit:10;}
	.st24{fill:none;stroke:#000000;stroke-width:0.25;stroke-miterlimit:10;}
	.st25{clip-path:url(#SVGID_00000110430876511727171370000006890931494716528026_);}
	.st26{opacity:0.4;}
	.st27{clip-path:url(#SVGID_00000173152191258323933390000015718319171394020022_);fill:#FBB03A;}
	.st28{fill:#CCCCCB;}
	.st29{clip-path:url(#SVGID_00000018948272331336553040000004755184102905173639_);}
	.st30{clip-path:url(#SVGID_00000178201982536703815630000014610230060061578129_);}
	.st31{fill:#ED1847;}
	.st32{fill:#73C049;}
	.st33{fill:#43489E;}
	.st34{fill:#F493AC;}
	.st35{fill:none;stroke:#FFFFFF;stroke-width:0.25;stroke-miterlimit:10;}
	.st36{opacity:0.2;}
	.st37{fill:#1F386A;}
	.st38{fill:#FFFFFF;stroke:#FFFFFF;stroke-miterlimit:10;}
	.st39{fill:none;stroke:#F79421;stroke-width:5;stroke-miterlimit:10;}
	.st40{fill:#F79421;}
</style>
<g>
	<polygon class="st14" points="444.26,38.92 444.26,3.05 351.73,3.05 328.09,3.05 314.51,3.05 314.51,200.59 351.73,200.59 
		351.73,122.2 429.31,122.2 429.31,86.34 351.73,86.34 351.73,38.92 	"/>
	<path class="st14" d="M264.23,36.25l-7.03,9.68c-0.12,0.16-0.18,0.35-0.18,0.55V157c0,0.25,0.1,0.49,0.27,0.66l5.42,5.42
		c0.35,0.35,0.9,0.37,1.27,0.05c5.81-4.98,12.01-19.43,12.01-28.42V63.35c0-9.67-4.11-21.36-10.36-27.22
		C265.23,35.74,264.57,35.79,264.23,36.25"/>
	<path class="st14" d="M242.03,8.29l-1.2,3.92c-0.18,0.59-0.87,0.84-1.39,0.51c-9.71-6.12-21.2-9.67-33.53-9.67H104.95
		c-0.83,0-1.25,1.01-0.66,1.59l20.74,20.74c0.18,0.18,0.41,0.27,0.66,0.27h104.13c0.9,0,1.28,1.15,0.55,1.69l-1.48,1.1
		c-0.49,0.36-0.13,1.15,0.47,1l17.06-4.16l-3.3-16.94C243.01,7.77,242.2,7.72,242.03,8.29"/>
	<path class="st14" d="M104.42,45.82L83.68,25.09c-0.59-0.59-1.59-0.17-1.59,0.66v152.07c0,0.83,1.01,1.25,1.59,0.66l20.74-20.74
		c0.18-0.18,0.27-0.41,0.27-0.66V46.48C104.69,46.23,104.6,45.99,104.42,45.82"/>
	<path class="st14" d="M124.94,178.26L104.2,199c-0.59,0.59-0.17,1.59,0.66,1.59h101.05c14.54,0,27.37-5.55,38.01-13.85
		c0.44-0.35,0.48-1.01,0.08-1.4l-7.14-7.08c-0.18-0.17-0.41-0.27-0.66-0.27H125.6C125.35,177.99,125.11,178.09,124.94,178.26"/>
	<path class="st12" d="M19.92,236.51L3.06,291.04h8.01l4.39-15.62h17.75l4.33,15.62h8.35l-16.86-54.53H19.92z M31.37,268.74H17.34
		l2.08-7.4c1.66-5.91,3.24-12,4.77-18.17h0.31c1.47,6.17,3.14,12.26,4.8,18.17L31.37,268.74z"/>
	<path class="st12" d="M80.68,253.66v2.42l-9.8,0.36v5.32h9.8v29.28h7.07v-29.28h13.93v-5.69H87.76v-2.59c0-5.25,2.41-8.35,8.2-8.35
		c2.93,0,5.21,0.46,7.91,1.58l1.53-5.29c-3.21-1.27-6.61-1.98-10.21-1.98C85.2,239.44,80.68,245.29,80.68,253.66"/>
	<path class="st12" d="M145.53,264.18h-0.17l-0.64-8.11h-5.9v34.97h7.13v-19.84c3.87-7.06,8.7-9.61,13.71-9.61
		c2.69,0,4.02,0.36,6.4,1.12l1.56-6.06c-2.12-1.03-4.15-1.43-6.86-1.43C154.52,255.21,149.13,258.49,145.53,264.18"/>
	<polygon class="st12" points="194.18,261.76 209.82,261.76 209.82,291.04 216.95,291.04 216.95,256.07 194.18,256.07 	"/>
	<path class="st12" d="M212.81,239.07c-3.07,0-5.31,2.08-5.31,5.09c0,3.07,2.24,5.06,5.31,5.06c3.07,0,5.31-1.99,5.31-5.06
		C218.12,241.15,215.87,239.07,212.81,239.07"/>
	<path class="st12" d="M273.43,285.18c-7.4,0-12.5-4.95-12.5-12.42c0-7.53,5.18-12.54,12.7-12.54c3.4,0,6.27,1.34,9.09,3.65
		l3.43-4.5c-2.89-2.81-7.19-5.01-12.83-5.01c-10.63,0-19.69,6.7-19.69,18.4c0,11.59,8.26,18.28,19.22,18.28
		c5.07,0,10.04-1.91,14.01-5.39l-3.06-4.59C281.03,283.32,277.58,285.18,273.43,285.18"/>
	<path class="st12" d="M337.08,254.35c-6.07,0-11.88,2.53-15.81,4.96l2.72,4.75c3.42-2,7.59-3.94,11.82-3.94
		c6.22,0,8.54,3.47,8.79,7.8c-17.66,1.33-24.77,5.18-24.77,13.03c0,6.16,5.14,10.09,11.83,10.09c4.79,0,9.65-2.47,13.39-5.4h0.23
		l0.57,4.54h5.89v-21.06C351.74,259.89,346.72,254.35,337.08,254.35 M344.6,280.68c-3.62,2.94-7.18,4.7-10.91,4.7
		c-3.74,0-6.89-1.45-6.89-4.96c0-4.18,4.07-6.94,17.8-7.93V280.68z"/>
	<g>
		<path class="st14" d="M170.16,91.54c0.06-0.04,0.1-0.09,0.14-0.14l-0.55-2.02l-1.65-0.62l-6.96-9.82l-3.41,3.28l9.87,7.04
			l0.49,1.74L170.16,91.54z"/>
		<path class="st14" d="M203.85,82.22l-3.41-3.28l-6.96,9.82l-1.66,0.62l-0.55,2.02c0.04,0.06,0.09,0.1,0.14,0.14l2.08-0.54
			l0.49-1.75L203.85,82.22z"/>
		<path class="st14" d="M219.37,51.15h-77.81c-6.71,0-12.14,5.43-12.14,12.14v77.81c0,6.71,5.44,12.14,12.14,12.14h77.81
			c6.71,0,12.14-5.44,12.14-12.14V63.29C231.51,56.58,226.07,51.15,219.37,51.15z M181.8,95.72c3.42,0.41,6.08,3.42,6.08,7.07
			c0,1-0.2,1.96-0.56,2.82c-1.78-0.81-4.62-2.05-6.26-2.77C181.3,100.84,181.57,98.04,181.8,95.72z M180.35,102.85L180.35,102.85
			c-1.59,1.06-5.82,3.68-5.86,3.6c-0.63-1.06-0.99-2.31-0.99-3.65c0-3.89,3.04-7.04,6.8-7.04
			C180.38,95.75,180.43,100.87,180.35,102.85z M150.05,95.34c0-1.19,0.97-2.14,2.15-2.14c4.89,0.02,9.79,0.05,14.68,0.07
			c0.32,0,0.64-0.06,1.14-0.12c-0.31-0.35-0.47-0.55-0.65-0.73c-2.96-2.91-5.92-5.81-8.9-8.7l-1.97-1.41l4.75-4.57l1.38,1.94
			c2.8,2.81,5.61,5.6,8.43,8.39c0.22,0.22,0.47,0.4,0.91,0.77c0.03-0.6,0.06-0.93,0.07-1.27c0.03-5.18,0.07-10.36,0.07-15.54
			c0-0.76,0.26-1.05,1.03-1.02c1.2,0.05,2.4,0.02,3.6,0.03c1.09,0.01,1.14,0.05,1.13,1.13c-0.03,5.82-0.04,11.64-0.1,17.46
			c-0.05,5.35-3.79,9.29-9.13,9.37c-5.92,0.09-11.85-0.04-17.77-0.06c-0.63,0-0.85-0.26-0.84-0.87
			C150.04,97.17,150.04,96.25,150.05,95.34z M176.73,134.51c-1.2,0.01-2.4-0.02-3.6,0.03c-0.77,0.03-1.03-0.26-1.03-1.02
			c0-5.18-0.04-10.36-0.07-15.53c0-0.34-0.03-0.67-0.07-1.27c-0.44,0.37-0.69,0.56-0.91,0.77c-2.82,2.79-5.63,5.58-8.43,8.39
			l-1.38,1.94l-4.75-4.57l1.97-1.41c2.97-2.89,5.93-5.8,8.9-8.7c0.18-0.18,0.34-0.39,0.65-0.74c-0.5-0.06-0.82-0.12-1.14-0.12
			c-4.89,0.02-9.79,0.05-14.68,0.07c-1.19,0-2.15-0.95-2.15-2.14c0-0.91,0-1.83-0.02-2.74c-0.02-0.61,0.21-0.87,0.84-0.87
			c5.92-0.02,11.85-0.15,17.77-0.05c5.34,0.09,9.08,4.02,9.13,9.37c0.06,5.82,0.07,11.64,0.1,17.46
			C177.87,134.45,177.83,134.5,176.73,134.51z M175.59,107.88c-0.05-0.05,3.03-2.5,5.17-4.39l0,0l0,0c1.69,0.87,5.96,3.19,5.92,3.25
			c-1.18,2.01-3.41,3.37-5.97,3.37C178.67,110.1,176.85,109.24,175.59,107.88z M211.48,109.74c0.3,1.4-0.76,2.63-2.1,2.62
			c-4.89-0.03-9.79-0.05-14.68-0.07c-0.32,0-0.64,0.06-1.14,0.12c0.31,0.35,0.47,0.55,0.65,0.74c2.96,2.9,5.92,5.81,8.89,8.7
			l1.98,1.41l-0.34,0.33c-1.58,1.51-3.96,3.8-4.07,3.91l-0.13,0.13l-0.19-0.01c-0.15-0.01-0.24-0.03-1.64-1.97
			c-2.72-2.73-5.46-5.44-8.19-8.15c-0.22-0.22-0.47-0.4-0.91-0.77c-0.03,0.6-0.06,0.93-0.07,1.27c-0.03,5.18-0.07,10.36-0.07,15.53
			c0,0.76-0.26,1.05-1.03,1.02c-1.2-0.05-2.4-0.02-3.61-0.03c-1.09-0.01-1.14-0.05-1.13-1.13c0.03-5.82,0.04-11.64,0.1-17.46
			c0.05-5.35,3.79-9.28,9.13-9.37c5.92-0.1,11.85,0.04,17.77,0.05c0.78,0,0.94,0.41,0.79,1.37
			C211.41,108.56,211.35,109.16,211.48,109.74z M210.71,98.95c-5.93,0.02-11.85,0.15-17.77,0.06c-5.34-0.09-9.08-4.02-9.13-9.37
			c-0.06-5.82-0.07-11.64-0.1-17.46c-0.01-1.07,0.04-1.12,1.13-1.13c1.2-0.01,2.4,0.02,3.61-0.03c0.77-0.03,1.03,0.26,1.03,1.02
			c0.01,5.18,0.04,10.36,0.07,15.54c0,0.33,0.03,0.67,0.07,1.27c0.44-0.37,0.69-0.55,0.91-0.77c2.82-2.79,5.63-5.58,8.43-8.39
			l1.37-1.94l4.75,4.57l-1.97,1.41c-2.97,2.89-5.93,5.8-8.89,8.7c-0.18,0.18-0.34,0.39-0.65,0.73c0.5,0.05,0.82,0.12,1.14,0.12
			c4.89-0.02,9.79-0.05,14.68-0.07c1.19-0.01,2.15,0.95,2.15,2.14c0,0.91,0,1.83,0.02,2.74C211.56,98.69,211.34,98.95,210.71,98.95z
			"/>
		<path class="st14" d="M168.13,114.52c-0.07,0.33-0.23,0.84-0.51,1.66l-0.04,0.12l-0.1,0.07l-9.76,6.96l3.41,3.28l6.96-9.82
			l1.66-0.62l0.55-2.02c-0.05-0.06-0.1-0.11-0.16-0.15C169.3,114.21,168.5,114.42,168.13,114.52z"/>
		<path class="st14" d="M191.42,114.01c-0.05,0.04-0.09,0.08-0.13,0.13c0.31,1.1,0.49,1.71,0.56,2.06c0.29,0.11,0.93,0.35,1.52,0.55
			l0.12,0.04l0.07,0.11c2.39,3.43,5.91,8.47,6.86,9.74c0.72-0.7,2.5-2.4,3.44-3.31l-9.87-7.04l-0.49-1.75L191.42,114.01z"/>
	</g>
	<g>
		<path class="st7" d="M180.35,102.85L180.35,102.85L180.35,102.85L180.35,102.85L180.35,102.85L180.35,102.85
			c0.08-1.98,0.03-7.09-0.05-7.09c-3.75,0-6.8,3.15-6.8,7.04c0,1.34,0.36,2.59,0.99,3.65C174.53,106.52,178.76,103.91,180.35,102.85
			L180.35,102.85z"/>
		<polygon class="st1" points="180.75,102.94 180.75,102.94 180.75,102.94 		"/>
		<path class="st7" d="M181.07,102.84C181.07,102.84,181.07,102.84,181.07,102.84C181.07,102.84,181.07,102.84,181.07,102.84
			c1.64,0.72,4.48,1.96,6.26,2.77c0.36-0.87,0.56-1.82,0.56-2.82c0-3.65-2.66-6.66-6.08-7.07
			C181.57,98.04,181.3,100.84,181.07,102.84L181.07,102.84z"/>
		<path class="st7" d="M180.76,103.48L180.76,103.48c-2.14,1.89-5.22,4.34-5.17,4.39c1.26,1.36,3.09,2.22,5.12,2.22
			c2.56,0,4.79-1.36,5.97-3.37C186.72,106.67,182.46,104.35,180.76,103.48L180.76,103.48z"/>
	</g>
	<g>
		<rect x="3.65" y="3.05" class="st14" width="38.58" height="35.87"/>
		<rect x="3.65" y="51.15" class="st14" width="38.58" height="149.45"/>
	</g>
</g>
</svg>
