<?xml version="1.0" encoding="utf-8"?>
<!-- Generator: Adobe Illustrator 28.2.0, SVG Export Plug-In . SVG Version: 6.00 Build 0)  -->
<svg version="1.1" id="Layer_1" xmlns="http://www.w3.org/2000/svg" xmlns:xlink="http://www.w3.org/1999/xlink" x="0px" y="0px"
	 viewBox="0 0 288 293.11" style="enable-background:new 0 0 288 293.11;" xml:space="preserve">
<style type="text/css">
	.st0{fill:none;}
	.st1{fill:#292D75;}
	.st2{fill:#4AB0E0;}
	.st3{clip-path:url(#SVGID_00000062889747918698274340000014751240568464821889_);fill:#4AB0E0;}
	.st4{clip-path:url(#SVGID_00000062889747918698274340000014751240568464821889_);fill:#F79320;}
	.st5{clip-path:url(#SVGID_00000062889747918698274340000014751240568464821889_);fill:#292D75;}
	
		.st6{clip-path:url(#SVGID_00000062889747918698274340000014751240568464821889_);fill:none;stroke:#24A8E0;stroke-width:3;stroke-miterlimit:10;}
	.st7{fill:#FBB03A;}
	.st8{fill:none;stroke:#24A8E0;stroke-width:3;stroke-miterlimit:10;}
	.st9{clip-path:url(#SVGID_00000060006399626275160890000016087514079378118302_);fill:#FBB03A;}
	
		.st10{clip-path:url(#SVGID_00000085945409018800220910000016862869205225922481_);fill:none;stroke:#4AB0E0;stroke-width:6;stroke-miterlimit:10;}
	.st11{clip-path:url(#SVGID_00000085945409018800220910000016862869205225922481_);fill:#4AB0E0;}
	.st12{fill:#F79320;}
	.st13{fill:#58CBF5;}
	.st14{fill:#27AAE1;}
	.st15{clip-path:url(#SVGID_00000000935839434126636410000017692263213236076968_);fill:#FBB03A;}
	.st16{clip-path:url(#SVGID_00000000935839434126636410000017692263213236076968_);fill:#27AAE1;}
	.st17{fill:none;stroke:#FFFFFF;stroke-width:0.75;stroke-miterlimit:10;}
	.st18{fill:none;stroke:#27AAE1;stroke-width:0.5;stroke-miterlimit:10;}
	.st19{fill:none;stroke:#FBB03A;stroke-width:0.5;stroke-miterlimit:10;}
	.st20{fill:none;stroke:#FFFFFF;stroke-width:0.5;stroke-miterlimit:10;}
	.st21{fill:none;stroke:#292D75;stroke-width:0.5;stroke-miterlimit:10;}
	.st22{fill:#FFFFFF;}
	.st23{fill:none;stroke:#000000;stroke-width:0.5;stroke-miterlimit:10;}
	.st24{fill:none;stroke:#000000;stroke-width:0.25;stroke-miterlimit:10;}
	.st25{clip-path:url(#SVGID_00000183946234035963847630000001746976827027311509_);}
	.st26{opacity:0.4;}
	.st27{clip-path:url(#SVGID_00000050632425894017096340000013249568297725165440_);fill:#FBB03A;}
	.st28{fill:#CCCCCB;}
	.st29{clip-path:url(#SVGID_00000113341286221046030260000014750607549058273967_);}
	.st30{clip-path:url(#SVGID_00000123400361701089407880000016804961526542952070_);}
	.st31{fill:#ED1847;}
	.st32{fill:#73C049;}
	.st33{fill:#43489E;}
	.st34{fill:#F493AC;}
	.st35{fill:none;stroke:#FFFFFF;stroke-width:0.25;stroke-miterlimit:10;}
	.st36{opacity:0.2;}
	.st37{fill:#1F386A;}
	.st38{fill:#FFFFFF;stroke:#FFFFFF;stroke-miterlimit:10;}
	.st39{fill:none;stroke:#F79421;stroke-width:5;stroke-miterlimit:10;}
	.st40{fill:#F79421;}
</style>
<g>
	<path class="st14" d="M269.12,50.25l-10.33,14.22c-0.17,0.23-0.26,0.52-0.26,0.81v162.32c0,0.36,0.14,0.71,0.4,0.97l7.97,7.97
		c0.51,0.51,1.32,0.54,1.87,0.07c8.53-7.31,17.64-28.54,17.64-41.74V90.05c0-14.2-6.04-31.38-15.21-39.98
		C270.58,49.49,269.61,49.57,269.12,50.25"/>
	<path class="st14" d="M236.5,9.17l-1.76,5.76c-0.26,0.87-1.28,1.23-2.05,0.75c-14.27-8.99-31.14-14.2-49.24-14.2H35.17
		c-1.22,0-1.84,1.48-0.97,2.34l30.45,30.46c0.26,0.26,0.61,0.4,0.97,0.4h152.94c1.32,0,1.88,1.69,0.81,2.48l-2.18,1.61
		c-0.73,0.54-0.19,1.68,0.69,1.47l25.06-6.1l-4.84-24.89C237.94,8.41,236.75,8.35,236.5,9.17"/>
	<path class="st14" d="M34.4,64.3L3.94,33.85C3.08,32.98,1.6,33.6,1.6,34.82v223.36c0,1.22,1.48,1.84,2.34,0.97l30.46-30.46
		c0.26-0.26,0.4-0.61,0.4-0.97V65.27C34.8,64.9,34.66,64.55,34.4,64.3"/>
	<path class="st14" d="M64.53,258.82l-30.46,30.46c-0.86,0.86-0.25,2.34,0.97,2.34h148.41c21.36,0,40.2-8.16,55.83-20.35
		c0.65-0.51,0.7-1.48,0.12-2.06l-10.48-10.4c-0.26-0.26-0.6-0.4-0.97-0.4H65.5C65.14,258.42,64.79,258.56,64.53,258.82"/>
	<g>
		<path class="st14" d="M130.95,131.46c0.08-0.07,0.15-0.13,0.21-0.21l-0.81-2.96l-2.43-0.91l-10.22-14.43l-5.01,4.82l14.5,10.34
			l0.72,2.56L130.95,131.46z"/>
		<path class="st14" d="M180.44,117.76l-5.01-4.82l-10.22,14.43l-2.43,0.92l-0.81,2.96c0.06,0.08,0.13,0.15,0.21,0.21l3.05-0.79
			l0.72-2.57L180.44,117.76z"/>
		<path class="st14" d="M203.22,72.12H88.94c-9.85,0-17.83,7.98-17.83,17.83v114.28c0,9.85,7.98,17.84,17.83,17.84h114.28
			c9.85,0,17.83-7.99,17.83-17.84V89.96C221.06,80.11,213.07,72.12,203.22,72.12z M148.05,137.59c5.03,0.6,8.93,5.02,8.93,10.38
			c0,1.47-0.3,2.88-0.83,4.15c-2.61-1.19-6.78-3.01-9.19-4.07C147.31,145.11,147.71,141,148.05,137.59z M145.92,148.06
			L145.92,148.06c-2.33,1.56-8.54,5.4-8.61,5.29c-0.92-1.56-1.45-3.4-1.45-5.36c0-5.71,4.47-10.34,9.98-10.34
			C145.97,137.64,146.03,145.15,145.92,148.06z M101.41,137.03c0-1.74,1.42-3.15,3.16-3.14c7.19,0.04,14.38,0.08,21.56,0.11
			c0.47,0,0.94-0.09,1.67-0.17c-0.45-0.51-0.69-0.81-0.96-1.08c-4.35-4.27-8.7-8.53-13.06-12.78l-2.9-2.07l6.97-6.71l2.02,2.85
			c4.11,4.12,8.24,8.22,12.38,12.32c0.33,0.32,0.69,0.59,1.34,1.14c0.05-0.88,0.09-1.37,0.1-1.86c0.04-7.61,0.1-15.21,0.11-22.82
			c0-1.12,0.38-1.55,1.51-1.5c1.76,0.07,3.53,0.03,5.29,0.04c1.6,0.01,1.67,0.08,1.66,1.65c-0.04,8.55-0.06,17.1-0.14,25.64
			c-0.07,7.86-5.57,13.64-13.41,13.76c-8.7,0.14-17.41-0.05-26.11-0.08c-0.92,0-1.25-0.39-1.23-1.28
			C101.41,139.71,101.41,138.37,101.41,137.03z M140.6,194.56c-1.76,0.01-3.53-0.03-5.29,0.04c-1.13,0.05-1.51-0.38-1.51-1.5
			c-0.01-7.61-0.06-15.21-0.11-22.82c0-0.49-0.05-0.99-0.1-1.87c-0.64,0.55-1.01,0.82-1.34,1.14c-4.13,4.1-8.27,8.2-12.38,12.32
			l-2.02,2.86l-6.97-6.71l2.9-2.07c4.37-4.25,8.71-8.51,13.06-12.78c0.27-0.27,0.5-0.57,0.96-1.08c-0.73-0.08-1.2-0.18-1.67-0.18
			c-7.19,0.03-14.38,0.07-21.56,0.11c-1.74,0.01-3.16-1.4-3.16-3.14c0-1.34,0-2.69-0.03-4.03c-0.02-0.89,0.31-1.28,1.23-1.28
			c8.7-0.03,17.41-0.22,26.11-0.08c7.84,0.13,13.34,5.91,13.41,13.76c0.08,8.55,0.1,17.09,0.14,25.64
			C142.28,194.48,142.21,194.54,140.6,194.56z M138.93,155.45c-0.07-0.07,4.45-3.67,7.6-6.45l0,0l0,0c2.49,1.28,8.75,4.68,8.7,4.77
			c-1.74,2.95-5.01,4.94-8.77,4.94C143.46,158.71,140.78,157.45,138.93,155.45z M191.64,158.18c-0.26,2.08-1.12,3.86-3.09,3.85
			c-7.19-0.04-14.38-0.08-21.56-0.11c-0.47,0-0.94,0.09-1.67,0.18c0.45,0.51,0.68,0.81,0.96,1.08c4.35,4.27,8.69,8.53,13.06,12.78
			l2.9,2.07l-0.5,0.48c-2.31,2.22-5.82,5.58-5.98,5.75l-0.18,0.19l-0.27-0.01c-0.21-0.01-0.36-0.04-2.41-2.9
			c-4-4-8.01-7.99-12.03-11.97c-0.32-0.32-0.69-0.59-1.34-1.14c-0.05,0.88-0.09,1.37-0.1,1.87c-0.05,7.6-0.1,15.21-0.11,22.82
			c0,1.12-0.38,1.55-1.51,1.5c-1.76-0.07-3.53-0.03-5.3-0.04c-1.6-0.01-1.67-0.08-1.66-1.66c0.04-8.55,0.06-17.09,0.14-25.64
			c0.07-7.85,5.57-13.63,13.41-13.76c8.7-0.14,17.4,0.05,26.11,0.08c1.14,0,1.14,0.58,1.16,2.01
			C191.68,156.58,191.74,157.31,191.64,158.18z M190.51,142.34c-8.7,0.03-17.41,0.22-26.11,0.08c-7.84-0.13-13.34-5.91-13.41-13.76
			c-0.08-8.54-0.1-17.09-0.14-25.64c-0.01-1.58,0.06-1.64,1.66-1.65c1.77-0.02,3.53,0.03,5.3-0.04c1.12-0.05,1.51,0.38,1.51,1.5
			c0.01,7.61,0.06,15.21,0.11,22.82c0,0.49,0.05,0.98,0.1,1.86c0.64-0.55,1.01-0.81,1.34-1.14c4.14-4.1,8.27-8.2,12.39-12.32
			l2.02-2.85l6.97,6.71l-2.9,2.07c-4.37,4.25-8.71,8.51-13.06,12.78c-0.27,0.26-0.51,0.57-0.96,1.08c0.73,0.08,1.2,0.18,1.67,0.17
			c7.19-0.03,14.38-0.07,21.56-0.11c1.74-0.01,3.16,1.4,3.17,3.14c0,1.34,0,2.68,0.03,4.03
			C191.76,141.95,191.43,142.33,190.51,142.34z"/>
		<path class="st14" d="M127.97,165.2c-0.1,0.48-0.34,1.24-0.75,2.44l-0.06,0.18l-0.15,0.11l-14.33,10.22l5.01,4.82l10.22-14.43
			l2.43-0.91l0.81-2.97c-0.07-0.09-0.14-0.15-0.23-0.22C129.68,164.75,128.51,165.05,127.97,165.2z"/>
		<path class="st14" d="M162.17,164.46c-0.07,0.06-0.14,0.12-0.2,0.19c0.46,1.61,0.72,2.52,0.82,3.02c0.42,0.17,1.37,0.51,2.23,0.81
			l0.18,0.06l0.11,0.15c3.5,5.04,8.68,12.44,10.08,14.31c1.06-1.03,3.67-3.53,5.05-4.86l-14.5-10.34l-0.72-2.56L162.17,164.46z"/>
	</g>
	<g>
		<path class="st7" d="M145.92,148.06L145.92,148.06L145.92,148.06L145.92,148.06L145.92,148.06L145.92,148.06
			c0.12-2.91,0.05-10.42-0.07-10.42c-5.51,0-9.98,4.63-9.98,10.34c0,1.96,0.53,3.8,1.45,5.36
			C137.38,153.45,143.58,149.62,145.92,148.06L145.92,148.06z"/>
		<polygon class="st1" points="146.5,148.2 146.5,148.2 146.5,148.2 		"/>
		<path class="st7" d="M146.97,148.05C146.97,148.05,146.97,148.05,146.97,148.05C146.97,148.05,146.97,148.05,146.97,148.05
			c2.41,1.06,6.58,2.88,9.19,4.07c0.53-1.27,0.83-2.67,0.83-4.15c0-5.37-3.9-9.79-8.93-10.38
			C147.71,141,147.31,145.11,146.97,148.05L146.97,148.05z"/>
		<path class="st7" d="M146.52,148.99L146.52,148.99c-3.15,2.78-7.67,6.38-7.6,6.45c1.85,2,4.53,3.26,7.52,3.26
			c3.76,0,7.03-1.99,8.77-4.94C155.27,153.67,149.01,150.27,146.52,148.99L146.52,148.99z"/>
	</g>
</g>
</svg>
