<svg id="Layer_1" data-name="Layer 1" xmlns="http://www.w3.org/2000/svg" xmlns:xlink="http://www.w3.org/1999/xlink" viewBox="0 0 179.18 104.6"><defs><style>.cls-1{fill:#022169;}.cls-2{fill:#7da1c4;}.cls-3{fill:url(#Graphic_Mark);}</style><linearGradient id="Graphic_Mark" x1="19.15" y1="24.43" x2="129.51" y2="24.43" gradientUnits="userSpaceOnUse"><stop offset="0" stop-color="#b0dfdb"/><stop offset="0.24" stop-color="#a7d9dc"/><stop offset="0.64" stop-color="#8fc8df"/><stop offset="1" stop-color="#73b4e2"/></linearGradient></defs><title>icap_logo_RGB-header-01</title><path class="cls-1" d="M2.71,47.75a4.49,4.49,0,0,1,4.78-4.57,4.57,4.57,0,1,1,0,9.13A4.48,4.48,0,0,1,2.71,47.75Z" transform="translate(-2.71 -1.04)"/><rect class="cls-1" x="0.91" y="57.81" width="7.66" height="31.34"/><path class="cls-1" d="M16.27,74.52C16.27,64.26,23.79,58,32.78,58a16.93,16.93,0,0,1,11.67,4.22l-3.73,5.13a10.37,10.37,0,0,0-7.37-2.67c-5.27,0-9.35,3.86-9.35,9.84,0,6.18,4.15,9.83,9.21,9.83a10.75,10.75,0,0,0,8-3.23l3.86,5.13A17,17,0,0,1,32.43,91.1C24.49,91.1,16.27,85.48,16.27,74.52Z" transform="translate(-2.71 -1.04)"/><path class="cls-1" d="M80.3,58.85V90.18H74.61l-1-4.42A13.94,13.94,0,0,1,62.25,91c-8.72,0-15-6.47-15-16.44,0-9.7,6.25-16.45,15.11-16.45a13.62,13.62,0,0,1,11,5.27l1.26-4.49ZM72.93,74.52c0-6-3.66-9.7-9.07-9.7-5.2,0-8.85,3.72-8.85,9.7s3.65,9.76,8.85,9.76C69.27,84.28,72.93,80.56,72.93,74.52Z" transform="translate(-2.71 -1.04)"/><path class="cls-1" d="M119.37,74.37c0,9.77-6.25,16.59-15,16.59A14.28,14.28,0,0,1,93.86,86.6c.14,2.18.14,4.71.14,7.45v11.59H86.35V58.85h5.2L93,63.63a13.85,13.85,0,0,1,11.38-5.56C113.05,58.07,119.37,65,119.37,74.37Zm-7.8.22c0-5.84-3.51-9.77-8.78-9.77s-9.07,3.86-9.07,9.62c0,5.91,3.73,9.84,9.07,9.84S111.57,80.28,111.57,74.59Z" transform="translate(-2.71 -1.04)"/><path class="cls-2" d="M167.49,68.77c0,2.83-1.75,4.76-4.32,4.76A4,4,0,0,1,159.94,72l-.36,1.31h-1.53V58.85h2.19v4c0,1,0,1.75-.06,2.59a4,4,0,0,1,3-1.3A4.32,4.32,0,0,1,167.49,68.77Zm-2.21.06a2.57,2.57,0,1,0-2.53,2.79A2.52,2.52,0,0,0,165.28,68.83Z" transform="translate(-2.71 -1.04)"/><path class="cls-2" d="M176.69,67.52v5.79h-1.47l-.4-1.35a3.71,3.71,0,0,1-3.19,1.53A2.51,2.51,0,0,1,168.81,71c0-2,1.81-3.18,4.54-3.18.46,0,.81,0,1.13,0v-.4c0-.92-.68-1.38-1.83-1.38a6.72,6.72,0,0,0-2.79.72l-.62-1.67a9.05,9.05,0,0,1,3.75-.92C175.28,64.19,176.69,65.35,176.69,67.52Zm-2.15,1.75a8.74,8.74,0,0,0-1-.06c-1.58,0-2.51.56-2.51,1.55,0,.7.49,1.08,1.29,1.08A2.32,2.32,0,0,0,174.54,69.27Z" transform="translate(-2.71 -1.04)"/><polygon class="cls-2" points="176.12 57.81 178.31 57.81 178.33 72.27 176.12 72.27 176.12 57.81"/><path class="cls-2" d="M140.6,65.66v5.4a7.11,7.11,0,0,1-5.67,2.51,7.09,7.09,0,1,1,0-14.18,7.14,7.14,0,0,1,5.29,2.19L139,63.14a5.28,5.28,0,0,0-3.9-1.62,4.63,4.63,0,0,0-4.8,5,4.68,4.68,0,0,0,4.88,5,4.55,4.55,0,0,0,3.36-1.31V67.62h-3.66v-2Z" transform="translate(-2.71 -1.04)"/><polygon class="cls-2" points="140.03 57.81 142.22 57.81 142.24 72.27 140.03 72.27 140.03 57.81"/><path class="cls-2" d="M146.69,68.83a4.81,4.81,0,1,1,4.8,4.74A4.57,4.57,0,0,1,146.69,68.83Zm7.39,0a2.6,2.6,0,1,0-2.59,2.79A2.56,2.56,0,0,0,154.08,68.83Z" transform="translate(-2.71 -1.04)"/><polygon class="cls-2" points="125.88 75.49 128.24 75.49 128.24 81.17 134.89 81.17 134.89 75.49 137.26 75.49 137.26 89.15 134.89 89.15 134.89 83.36 128.24 83.36 128.24 89.15 125.88 89.15 125.88 75.49"/><path class="cls-2" d="M150.41,85.38a9.83,9.83,0,0,1-.08,1.05H143.9a2.69,2.69,0,0,0,2.85,2.21,3.33,3.33,0,0,0,2.37-.85l.93,1.41a5.31,5.31,0,0,1-3.5,1.24,4.73,4.73,0,1,1-.22-9.45C148.86,81,150.41,82.69,150.41,85.38Zm-6.49-.44h4.42a2,2,0,0,0-2.05-2.17A2.39,2.39,0,0,0,143.92,84.94Z" transform="translate(-2.71 -1.04)"/><path class="cls-2" d="M159.61,84.4v5.78h-1.47l-.4-1.34a3.7,3.7,0,0,1-3.19,1.52c-1.65,0-2.82-.92-2.82-2.51,0-2,1.81-3.17,4.54-3.17.46,0,.81,0,1.13,0v-.4c0-.92-.69-1.39-1.83-1.39a6.74,6.74,0,0,0-2.79.73L152.16,82a9.05,9.05,0,0,1,3.75-.92C158.2,81.07,159.61,82.23,159.61,84.4Zm-2.15,1.75a8.86,8.86,0,0,0-1.05-.06c-1.58,0-2.51.56-2.51,1.54,0,.71.48,1.09,1.29,1.09A2.32,2.32,0,0,0,157.46,86.15Z" transform="translate(-2.71 -1.04)"/><polygon class="cls-2" points="159.04 74.69 161.23 74.69 161.25 89.15 159.04 89.15 159.04 74.69"/><path class="cls-2" d="M167.1,87.45V83.09L165.51,83V81.23h1.59l.06-2.87h2.13v2.87h2.77v1.86h-2.77v4.14c0,.88.4,1.15,1,1.15a2.76,2.76,0,0,0,1.51-.47l.7,1.65a4.91,4.91,0,0,1-2.71.82C168.16,90.38,167.1,89.46,167.1,87.45Z" transform="translate(-2.71 -1.04)"/><path class="cls-2" d="M181.89,84.56v5.62H179.7V84.74c0-1.08-.46-1.79-1.55-1.79-1.42,0-2.17,1.19-2.17,2.61v4.62H173.8V75.72H176v5.35c0,.42,0,.82,0,1.36A3.05,3.05,0,0,1,178.72,81C180.82,81,181.89,82.35,181.89,84.56Z" transform="translate(-2.71 -1.04)"/><path class="cls-3" d="M129.45,3a1.53,1.53,0,0,0-2-1.84L20.14,44.86a1.53,1.53,0,0,0,.55,3h92.68a4.46,4.46,0,0,0,4.44-3.44Z" transform="translate(-2.71 -1.04)"/></svg>